<svg xmlns="http://www.w3.org/2000/svg" width="44" height="40" viewBox="0 0 44 40">
  <path fill-rule="evenodd" fill="#068af5" d="M418.774,50.529a7.549,7.549,0,0,0-6.855-3.706,7.278,7.278,0,0,0-5.278,2.317q-4.076,4.1-8.156,8.2c-0.311.314-.536,0.518-0.961,0.088-2.725-2.76-5.482-5.485-8.213-8.238a1.852,1.852,0,1,1,2.6-2.633c0.626,0.6,1.226,1.219,1.832,1.835,1.379,1.4,2.754,2.81,4.153,4.237,0.229-.212.378-0.338,0.516-0.477q2.391-2.4,4.776-4.805a12.305,12.305,0,0,1,4.444-3.3c1.253-.447,2.565-0.729,3.855-1.085,0.013,0.048.014,0-.01-0.031a7.818,7.818,0,0,0-11.684-.555c-0.59.594-1.125,1.243-1.8,1.989-0.761-.817-1.359-1.5-2-2.138a7.645,7.645,0,0,0-8.668-1.5,7.813,7.813,0,0,0-2.111,12.732q5.934,5.948,11.854,11.91a7.81,7.81,0,0,1,.717.993c0.384-.355.566-0.513,0.736-0.682q3.92-3.922,7.836-7.847,2.227-2.231,4.449-4.466a1.809,1.809,0,0,1,1.95-.5,1.741,1.741,0,0,1,1.211,1.457,1.913,1.913,0,0,1-.631,1.737q-7.49,7.508-14.973,15.023c-0.121.122-.263,0.223-0.586,0.493a5.233,5.233,0,0,0-.537-0.784c-4.544-4.573-9.113-9.123-13.638-13.717a26.12,26.12,0,0,1-3-3.532,10.272,10.272,0,0,1-1.554-5.085,0.862,0.862,0,0,0-.208.068,7.87,7.87,0,0,0-.564,11.629q9.344,9.372,18.687,18.748a9.02,9.02,0,0,1,.8,1.09c0.382-.348.549-0.489,0.7-0.643q9.609-9.626,19.206-19.265a7.392,7.392,0,0,0,1.291-1.758A7.534,7.534,0,0,0,418.774,50.529Z" transform="translate(-376 -40)"/>
</svg>